<svg width="18" height="18" viewBox="0 0 18 18" fill="none" xmlns="http://www.w3.org/2000/svg">
<path d="M16.6274 1.37255C17.032 1.77714 17.2593 2.32587 17.2593 2.89804C17.2593 3.47021 17.032 4.01894 16.6274 4.42353L12.051 8.99999L16.6274 13.5764C17.032 13.981 17.2593 14.5298 17.2593 15.1019C17.2593 15.6741 17.032 16.2228 16.6274 16.6274C16.2229 17.032 15.6741 17.2593 15.1019 17.2593C14.5298 17.2593 13.981 17.032 13.5765 16.6274L9 12.051L4.42354 16.6274C4.01896 17.032 3.47022 17.2593 2.89805 17.2593C2.32588 17.2593 1.77715 17.032 1.37256 16.6274C0.96798 16.2228 0.740687 15.6741 0.740688 15.1019C0.740689 14.5298 0.967984 13.981 1.37257 13.5764L5.94903 8.99999L1.37257 4.42353C0.967982 4.01894 0.740689 3.47021 0.740689 2.89804C0.740689 2.32587 0.967981 1.77714 1.37257 1.37255C1.77715 0.967967 2.32588 0.740675 2.89805 0.740676C3.47022 0.740676 4.01895 0.967969 4.42354 1.37255L9 5.94902L13.5765 1.37255C13.981 0.967969 14.5298 0.740676 15.1019 0.740676C15.6741 0.740675 16.2229 0.967967 16.6274 1.37255Z" fill="currentColor"/>
</svg>
