<svg width="42" height="42" viewBox="0 0 42 42" fill="none" xmlns="http://www.w3.org/2000/svg">
<path fill-rule="evenodd" clip-rule="evenodd" d="M20.0427 12.058C19.6487 12.572 19.2047 13.366 18.5587 14.524L18.2317 15.111L18.1727 15.217C17.8727 15.757 17.6177 16.215 17.2087 16.525C16.7957 16.839 16.2917 16.952 15.7057 17.084L15.5917 17.11L14.9557 17.254C13.7007 17.538 12.8457 17.733 12.2617 17.964C11.6907 18.188 11.5707 18.373 11.5247 18.52C11.4757 18.676 11.4747 18.915 11.8147 19.457C12.1617 20.007 12.7467 20.693 13.6007 21.693L14.0347 22.2L14.1097 22.287C14.5127 22.757 14.8487 23.149 15.0027 23.645C15.1557 24.138 15.1047 24.655 15.0427 25.283L15.0327 25.4L14.9667 26.077C14.8367 27.409 14.7507 28.327 14.7797 28.987C14.8097 29.647 14.9487 29.829 15.0597 29.913C15.1577 29.988 15.3397 30.07 15.9327 29.9C16.5357 29.728 17.3377 29.361 18.5127 28.82L19.1087 28.546L19.2177 28.496C19.7627 28.243 20.2347 28.025 20.7507 28.025C21.2667 28.025 21.7387 28.243 22.2837 28.495C22.32 28.5125 22.3567 28.5291 22.3937 28.545L22.9887 28.82C24.1637 29.361 24.9657 29.728 25.5687 29.9C26.1617 30.07 26.3437 29.988 26.4417 29.913C26.5527 29.829 26.6917 29.646 26.7217 28.987C26.7517 28.327 26.6637 27.409 26.5347 26.077L26.4687 25.4L26.4587 25.283C26.3967 24.655 26.3457 24.138 26.4987 23.645C26.6527 23.149 26.9887 22.757 27.3917 22.287L27.4667 22.2L27.9007 21.693C28.7547 20.693 29.3397 20.007 29.6857 19.457C30.0267 18.915 30.0257 18.677 29.9767 18.52C29.9307 18.373 29.8107 18.188 29.2397 17.964C28.6547 17.733 27.8007 17.538 26.5457 17.254L25.9097 17.11C25.8707 17.1 25.8327 17.092 25.7957 17.084C25.2097 16.952 24.7057 16.839 24.2927 16.525C23.8827 16.215 23.6297 15.758 23.3287 15.217L23.2707 15.111L22.9427 14.524C22.2967 13.366 21.8527 12.572 21.4587 12.058C21.0657 11.544 20.8647 11.5 20.7507 11.5C20.6367 11.5 20.4357 11.544 20.0427 12.058ZM18.8527 11.146C19.3277 10.524 19.9167 10 20.7507 10C21.5847 10 22.1727 10.524 22.6497 11.146C23.1177 11.758 23.6147 12.649 24.2217 13.738L24.5807 14.381C24.9727 15.085 25.0737 15.235 25.1997 15.331C25.3197 15.422 25.4767 15.474 26.2397 15.647L26.9397 15.805C28.1157 16.071 29.0847 16.29 29.7897 16.568C30.5217 16.857 31.1627 17.282 31.4097 18.075C31.6537 18.86 31.3797 19.582 30.9557 20.255C30.5437 20.91 29.8857 21.68 29.0817 22.62L28.6067 23.175C28.0897 23.779 27.9817 23.927 27.9307 24.09C27.8797 24.257 27.8837 24.45 27.9627 25.255L28.0337 25.993C28.1557 27.249 28.2547 28.273 28.2197 29.053C28.1847 29.848 28.0047 30.61 27.3497 31.108C26.6817 31.614 25.9047 31.558 25.1547 31.342C24.4277 31.134 23.5217 30.717 22.4217 30.21L21.7657 29.908C21.0477 29.578 20.8947 29.525 20.7507 29.525C20.6067 29.525 20.4537 29.578 19.7357 29.908L19.0807 30.21C17.9797 30.717 17.0737 31.134 16.3467 31.342C15.5967 31.557 14.8197 31.614 14.1527 31.108C13.4967 30.61 13.3167 29.848 13.2817 29.054C13.2467 28.274 13.3457 27.249 13.4677 25.994L13.5397 25.255C13.6177 24.449 13.6217 24.257 13.5697 24.09C13.5197 23.927 13.4117 23.78 12.8947 23.175L12.4197 22.62C11.6167 21.68 10.9587 20.91 10.5467 20.256C10.1217 19.582 9.84772 18.86 10.0917 18.075C10.3387 17.282 10.9797 16.857 11.7117 16.568C12.4167 16.29 13.3857 16.071 14.5617 15.805L14.6247 15.791L15.2607 15.647C16.0247 15.474 16.1807 15.422 16.3017 15.33C16.4277 15.235 16.5287 15.085 16.9217 14.381L17.2797 13.738C17.8867 12.648 18.3837 11.758 18.8517 11.146" fill="currentColor"/>
</svg>
