<svg width="20" height="20" viewBox="0 0 20 20" fill="none" xmlns="http://www.w3.org/2000/svg">
<path d="M14.0002 -0.00146467C15.1683 -0.00174512 16.311 0.338917 17.2882 0.978731C18.2654 1.61854 19.0347 2.52968 19.5015 3.60038C19.9684 4.67107 20.1126 5.85475 19.9164 7.00621C19.7203 8.15767 19.1923 9.22683 18.3972 10.0825L18.2072 10.2765L9.4802 19.0035L9.4272 19.0535L9.3712 19.0985C8.66029 19.7114 7.74402 20.033 6.80603 19.9988C5.86803 19.9646 4.97761 19.5771 4.31321 18.9141C3.64881 18.2511 3.25952 17.3615 3.22336 16.4236C3.1872 15.4857 3.50683 14.5687 4.1182 13.8565L4.2672 13.6925L4.2822 13.6815L11.5722 6.37753C11.7596 6.18976 12.0139 6.08411 12.2791 6.08383C12.5444 6.08355 12.7989 6.18866 12.9867 6.37603C13.1745 6.56341 13.2801 6.8177 13.2804 7.08297C13.2807 7.34824 13.1756 7.60276 12.9882 7.79053L5.6982 15.0945L5.6862 15.1025C5.39197 15.4167 5.22617 15.8298 5.22151 16.2603C5.21685 16.6907 5.37367 17.1073 5.66103 17.4278C5.94839 17.7483 6.34543 17.9494 6.77383 17.9916C7.20222 18.0338 7.63087 17.9139 7.9752 17.6555L8.0972 17.5555L8.0982 17.5565L16.8002 8.85653L16.9592 8.69153C17.6593 7.92199 18.0321 6.90996 17.9984 5.87014C17.9647 4.83032 17.5272 3.84455 16.7787 3.12196C16.0302 2.39937 15.0296 1.99682 13.9893 1.99973C12.9489 2.00264 11.9506 2.41077 11.2062 3.13754L11.0512 3.29754L11.0332 3.30954L1.7072 12.6395C1.61429 12.7324 1.504 12.806 1.38264 12.8562C1.26127 12.9065 1.1312 12.9323 0.999849 12.9322C0.868501 12.9322 0.738447 12.9063 0.617115 12.856C0.495783 12.8057 0.385547 12.7319 0.292703 12.639C0.199858 12.5461 0.126223 12.4358 0.0760006 12.3145C0.0257786 12.1931 -4.63668e-05 12.063 6.24931e-08 11.9317C9.38307e-05 11.6664 0.105562 11.412 0.293203 11.2245L9.6022 1.91154L9.6482 1.86854C10.2089 1.27769 10.8839 0.807192 11.6323 0.485698C12.3807 0.164204 13.1857 -0.00155057 14.0002 -0.00146467Z" fill="currentColor"/>
</svg>
