<svg width="42" height="42" viewBox="0 0 42 42" fill="none" xmlns="http://www.w3.org/2000/svg">
<g id="Property 1=Variant3">
<path id="Vector" fill-rule="evenodd" clip-rule="evenodd" d="M18.8527 11.146C19.3277 10.524 19.9167 10 20.7507 10C21.5847 10 22.1727 10.524 22.6497 11.146C23.1177 11.758 23.6147 12.649 24.2217 13.738L24.5807 14.381C24.9727 15.085 25.0737 15.235 25.1997 15.331C25.3197 15.422 25.4767 15.474 26.2397 15.647L26.9397 15.805C28.1157 16.071 29.0847 16.29 29.7897 16.568C30.5217 16.857 31.1627 17.282 31.4097 18.075C31.6537 18.86 31.3797 19.582 30.9557 20.255C30.5437 20.91 29.8857 21.68 29.0817 22.62L28.6067 23.175C28.0897 23.779 27.9817 23.927 27.9307 24.09C27.8797 24.257 27.8837 24.45 27.9627 25.255L28.0337 25.993C28.1557 27.249 28.2547 28.273 28.2197 29.053C28.1847 29.848 28.0047 30.61 27.3497 31.108C26.6817 31.614 25.9047 31.558 25.1547 31.342C24.4277 31.134 23.5217 30.717 22.4217 30.21L21.7657 29.908C21.0477 29.578 20.8947 29.525 20.7507 29.525C20.6067 29.525 20.4537 29.578 19.7357 29.908L19.0807 30.21C17.9797 30.717 17.0737 31.134 16.3467 31.342C15.5967 31.557 14.8197 31.614 14.1527 31.108C13.4967 30.61 13.3167 29.848 13.2817 29.054C13.2467 28.274 13.3457 27.249 13.4677 25.994L13.5397 25.255C13.6177 24.449 13.6217 24.257 13.5697 24.09C13.5197 23.927 13.4117 23.78 12.8947 23.175L12.4197 22.62C11.6167 21.68 10.9587 20.91 10.5467 20.256C10.1217 19.582 9.84772 18.86 10.0917 18.075C10.3387 17.282 10.9797 16.857 11.7117 16.568C12.4167 16.29 13.3857 16.071 14.5617 15.805L14.6247 15.791L15.2607 15.647C16.0247 15.474 16.1807 15.422 16.3017 15.33C16.4277 15.235 16.5287 15.085 16.9217 14.381L17.2797 13.738C17.8867 12.648 18.3837 11.758 18.8517 11.146" fill="#FFBA35"/>
</g>
</svg>
