<svg width="18" height="19" viewBox="0 0 18 19" fill="none" xmlns="http://www.w3.org/2000/svg">
<path fill-rule="evenodd" clip-rule="evenodd" d="M8.00644 0.5C6.72963 0.500109 5.47135 0.805544 4.3366 1.39082C3.20184 1.9761 2.2235 2.82425 1.48321 3.86452C0.742925 4.90478 0.26215 6.10698 0.0809993 7.37083C-0.100152 8.63468 0.0235751 9.92353 0.441857 11.1298C0.860138 12.3361 1.56085 13.4249 2.48552 14.3054C3.41019 15.1858 4.53201 15.8324 5.75739 16.1911C6.98278 16.5498 8.27618 16.6103 9.5297 16.3676C10.7832 16.1248 11.9605 15.5858 12.9633 14.7955L16.4036 18.2356C16.5812 18.4072 16.8192 18.5021 17.0662 18.5C17.3132 18.4978 17.5494 18.3988 17.7241 18.2241C17.8987 18.0495 17.9978 17.8132 18 17.5662C18.0021 17.3192 17.9072 17.0813 17.7356 16.9036L14.2953 13.4635C15.226 12.2829 15.8055 10.864 15.9675 9.36941C16.1295 7.8748 15.8674 6.36478 15.2112 5.01217C14.555 3.65955 13.5312 2.519 12.2571 1.72102C10.9829 0.923049 9.50986 0.499899 8.00644 0.5ZM1.88335 8.50682C1.88335 6.88294 2.52846 5.32556 3.67676 4.1773C4.82506 3.02904 6.3825 2.38396 8.00644 2.38396C9.63039 2.38396 11.1878 3.02904 12.3361 4.1773C13.4844 5.32556 14.1295 6.88294 14.1295 8.50682C14.1295 10.1307 13.4844 11.6881 12.3361 12.8363C11.1878 13.9846 9.63039 14.6297 8.00644 14.6297C6.3825 14.6297 4.82506 13.9846 3.67676 12.8363C2.52846 11.6881 1.88335 10.1307 1.88335 8.50682Z" fill="currentColor"/>
</svg>
