<svg width="20" height="20" viewBox="0 0 20 20" fill="none" xmlns="http://www.w3.org/2000/svg">
<path fill-rule="evenodd" clip-rule="evenodd" d="M1.5 3.5H18.5L17.2015 19.0828C17.1583 19.6011 16.725 19.9998 16.2049 19.9998H3.79525C3.27516 19.9998 2.8419 19.6011 2.7987 19.0828L1.5 3.5ZM5.99999 7.49993C5.99999 6.6715 6.67156 5.99993 7.49999 5.99993C8.32842 5.99993 8.99999 6.6715 8.99999 7.49993V15.4999C8.99999 16.3284 8.32842 16.9999 7.49999 16.9999C6.67156 16.9999 5.99999 16.3284 5.99999 15.4999V7.49993ZM12.5 5.99993C11.6716 5.99993 11 6.6715 11 7.49993V15.4999C11 16.3284 11.6716 16.9999 12.5 16.9999C13.3284 16.9999 14 16.3284 14 15.4999V7.49993C14 6.6715 13.3284 5.99993 12.5 5.99993Z" fill="currentColor"/>
<rect y="1.81836" width="20" height="2.42424" rx="1.21212" fill="currentColor"/>
<path d="M6.875 2.24358C6.875 1.00449 7.87949 0 9.11858 0H10.7007C12.0396 0 13.125 1.08537 13.125 2.42424H6.875V2.24358Z" fill="currentColor"/>
</svg>
