<svg width="21" height="20" viewBox="0 0 21 20" fill="none" xmlns="http://www.w3.org/2000/svg">
<path d="M10.5 20C15.6818 20 19.9455 16.0545 20.4545 11C20.5091 10.4636 20.0818 10 19.5455 10C19.0818 10 18.6909 10.3455 18.6455 10.8C18.2455 14.9455 14.7455 18.1818 10.5 18.1818C7.66364 18.1818 5.16364 16.7364 3.7 14.5455H5.04545C5.54545 14.5455 5.95455 14.1364 5.95455 13.6364C5.95455 13.1364 5.54545 12.7273 5.04545 12.7273H1.40909C0.909091 12.7273 0.5 13.1364 0.5 13.6364V17.2727C0.5 17.7727 0.909091 18.1818 1.40909 18.1818C1.90909 18.1818 2.31818 17.7727 2.31818 17.2727V15.7545C4.12727 18.3182 7.11818 20 10.5 20ZM10.5 4.52549e-07C5.31818 4.52549e-07 1.05455 3.94546 0.545455 9C0.5 9.53636 0.918182 10 1.45455 10C1.91818 10 2.30909 9.65455 2.35455 9.2C2.75455 5.05455 6.25455 1.81818 10.5 1.81818C13.3364 1.81818 15.8364 3.26364 17.3 5.45455H15.9545C15.4545 5.45455 15.0455 5.86364 15.0455 6.36364C15.0455 6.86364 15.4545 7.27273 15.9545 7.27273H19.5909C20.0909 7.27273 20.5 6.86364 20.5 6.36364V2.72727C20.5 2.22727 20.0909 1.81818 19.5909 1.81818C19.0909 1.81818 18.6818 2.22727 18.6818 2.72727V4.24546C17.7586 2.93345 16.5332 1.8628 15.1092 1.1239C13.6852 0.384997 12.1043 -0.000482129 10.5 4.52549e-07Z" fill="currentColor"/>
</svg>
