<svg width="14" height="14" viewBox="0 0 14 14" fill="none" xmlns="http://www.w3.org/2000/svg">
<path d="M12.6569 1.34338C12.9569 1.64344 13.1255 2.0504 13.1255 2.47475C13.1255 2.8991 12.9569 3.30606 12.6569 3.60612L9.26274 7.00023L12.6569 10.3943C12.9569 10.6944 13.1255 11.1014 13.1255 11.5257C13.1255 11.9501 12.9569 12.357 12.6569 12.6571C12.3568 12.9571 11.9498 13.1257 11.5255 13.1257C11.1011 13.1257 10.6942 12.9571 10.3941 12.6571L7 9.26297L3.60589 12.6571C3.30583 12.9571 2.89886 13.1257 2.47452 13.1257C2.05017 13.1257 1.6432 12.9571 1.34315 12.6571C1.04309 12.357 0.874516 11.9501 0.874516 11.5257C0.874516 11.1014 1.04309 10.6944 1.34315 10.3943L4.73726 7.00023L1.34315 3.60612C1.04309 3.30606 0.874517 2.8991 0.874517 2.47475C0.874518 2.0504 1.04309 1.64344 1.34315 1.34338C1.6432 1.04332 2.05017 0.874749 2.47452 0.874749C2.89886 0.874749 3.30583 1.04332 3.60589 1.34338L7 4.73749L10.3941 1.34338C10.6942 1.04332 11.1011 0.874749 11.5255 0.874749C11.9498 0.874749 12.3568 1.04332 12.6569 1.34338Z" fill="url(#paint0_linear_2001_3271)"/>
<defs>
<linearGradient id="paint0_linear_2001_3271" x1="5.30294" y1="31.3245" x2="11.2426" y2="-19.8701" gradientUnits="userSpaceOnUse">
<stop stop-color="#762CB9"/>
<stop offset="0.515" stop-color="#8425DA"/>
<stop offset="1" stop-color="#B96BFF"/>
</linearGradient>
</defs>
</svg>
