<svg width="46" height="42" viewBox="0 0 46 42" fill="none" xmlns="http://www.w3.org/2000/svg">
<g clip-path="url(#clip0_2002_1308)">
<g filter="url(#filter0_i_2002_1308)">
<rect x="1.00213" y="0.694999" width="43.0948" height="40.61" rx="12.48" fill="url(#paint0_radial_2002_1308)" stroke="url(#paint1_linear_2002_1308)" stroke-width="0.389999"/>
</g>
<mask id="mask0_2002_1308" style="mask-type:alpha" maskUnits="userSpaceOnUse" x="6" y="6" width="33" height="29">
<rect x="6.45667" y="6.95654" width="32.3403" height="27.9624" rx="10.4506" fill="url(#paint2_linear_2002_1308)"/>
</mask>
<g mask="url(#mask0_2002_1308)">
<path fill-rule="evenodd" clip-rule="evenodd" d="M16.9072 6.95654C11.1355 6.95654 6.45667 11.6354 6.45667 17.4071V24.4683C6.45667 30.24 11.1356 34.9189 16.9073 34.9189H28.3464C34.1181 34.9189 38.797 30.24 38.797 24.4683V17.4071C38.797 11.6354 34.1181 6.95654 28.3464 6.95654H16.9072ZM19.3744 13.8741C19.4153 13.9728 19.4752 14.0624 19.5508 14.1378C19.6262 14.2134 19.7158 14.2733 19.8145 14.3142C19.9131 14.3551 20.0188 14.3761 20.1256 14.3761C20.2324 14.3761 20.3381 14.3551 20.4368 14.3142C20.5354 14.2733 20.625 14.2134 20.7005 14.1378L22.5631 12.2742V17.6255C22.5631 17.841 22.6487 18.0476 22.8011 18.2C22.9535 18.3524 23.1601 18.438 23.3756 18.438C23.5911 18.438 23.7978 18.3524 23.9501 18.2C24.1025 18.0476 24.1881 17.841 24.1881 17.6255V12.2742L26.0508 14.1378C26.2032 14.2903 26.41 14.3759 26.6256 14.3759C26.8412 14.3759 27.048 14.2903 27.2005 14.1378C27.3529 13.9854 27.4386 13.7786 27.4386 13.563C27.4386 13.3474 27.3529 13.1406 27.2005 12.9881L23.9505 9.73814C23.875 9.6626 23.7854 9.60267 23.6868 9.56178C23.5881 9.5209 23.4824 9.49985 23.3756 9.49985C23.2688 9.49985 23.1631 9.5209 23.0645 9.56178C22.9658 9.60267 22.8762 9.6626 22.8008 9.73814L19.5508 12.9881C19.4752 13.0636 19.4153 13.1532 19.3744 13.2518C19.3335 13.3505 19.3125 13.4562 19.3125 13.563C19.3125 13.6698 19.3335 13.7755 19.3744 13.8741ZM24.1881 29.4768L26.0508 27.6131C26.2032 27.4607 26.41 27.375 26.6256 27.375C26.8412 27.375 27.048 27.4607 27.2005 27.6131C27.3529 27.7656 27.4386 27.9724 27.4386 28.188C27.4386 28.4036 27.3529 28.6104 27.2005 28.7628L23.9505 32.0128C23.875 32.0884 23.7854 32.1483 23.6868 32.1892C23.5881 32.2301 23.4824 32.2511 23.3756 32.2511C23.2688 32.2511 23.1631 32.2301 23.0645 32.1892C22.9658 32.1483 22.8762 32.0884 22.8008 32.0128L19.5508 28.7628C19.3983 28.6104 19.3127 28.4036 19.3127 28.188C19.3127 27.9724 19.3983 27.7656 19.5508 27.6131C19.7032 27.4607 19.91 27.375 20.1256 27.375C20.3412 27.375 20.548 27.4607 20.7005 27.6131L22.5631 29.4768V24.1255C22.5631 23.91 22.6487 23.7033 22.8011 23.551C22.9535 23.3986 23.1601 23.313 23.3756 23.313C23.5911 23.313 23.7978 23.3986 23.9501 23.551C24.1025 23.7033 24.1881 23.91 24.1881 24.1255V29.4768ZM31.263 17.0506L34.513 20.3006C34.5885 20.3761 34.6484 20.4657 34.6893 20.5644C34.7302 20.663 34.7512 20.7687 34.7512 20.8755C34.7512 20.9823 34.7302 21.088 34.6893 21.1866C34.6484 21.2853 34.5885 21.3749 34.513 21.4503L31.263 24.7003C31.1105 24.8528 30.9037 24.9384 30.6881 24.9384C30.4725 24.9384 30.2657 24.8528 30.1133 24.7003C29.9608 24.5479 29.8752 24.3411 29.8752 24.1255C29.8752 23.9099 29.9608 23.7031 30.1133 23.5506L31.9769 21.688H26.6256C26.4101 21.688 26.2035 21.6024 26.0511 21.45C25.8987 21.2976 25.8131 21.091 25.8131 20.8755C25.8131 20.66 25.8987 20.4533 26.0511 20.301C26.2035 20.1486 26.4101 20.063 26.6256 20.063H31.9769L30.1133 18.2003C29.9608 18.0479 29.8752 17.8411 29.8752 17.6255C29.8752 17.4099 29.9608 17.2031 30.1133 17.0506C30.2657 16.8982 30.4725 16.8125 30.6881 16.8125C30.9037 16.8125 31.1105 16.8982 31.263 17.0506ZM20.1256 21.688H14.7743L16.638 23.5506C16.7904 23.7031 16.8761 23.9099 16.8761 24.1255C16.8761 24.3411 16.7904 24.5479 16.638 24.7003C16.4855 24.8528 16.2787 24.9384 16.0631 24.9384C15.8475 24.9384 15.6407 24.8528 15.4883 24.7003L12.2383 21.4503C12.1627 21.3749 12.1028 21.2853 12.0619 21.1866C12.021 21.088 12 20.9823 12 20.8755C12 20.7687 12.021 20.663 12.0619 20.5644C12.1028 20.4657 12.1627 20.3761 12.2383 20.3006L15.4883 17.0506C15.6407 16.8982 15.8475 16.8125 16.0631 16.8125C16.2787 16.8125 16.4855 16.8982 16.638 17.0506C16.7904 17.2031 16.8761 17.4099 16.8761 17.6255C16.8761 17.8411 16.7904 18.0479 16.638 18.2003L14.7743 20.063H20.1256C20.3411 20.063 20.5478 20.1486 20.7001 20.301C20.8525 20.4533 20.9381 20.66 20.9381 20.8755C20.9381 21.091 20.8525 21.2976 20.7001 21.45C20.5478 21.6024 20.3411 21.688 20.1256 21.688Z" fill="url(#paint3_linear_2002_1308)"/>
</g>
</g>
<defs>
<filter id="filter0_i_2002_1308" x="0.807129" y="0.5" width="46.4099" height="44.51" filterUnits="userSpaceOnUse" color-interpolation-filters="sRGB">
<feFlood flood-opacity="0" result="BackgroundImageFix"/>
<feBlend mode="normal" in="SourceGraphic" in2="BackgroundImageFix" result="shape"/>
<feColorMatrix in="SourceAlpha" type="matrix" values="0 0 0 0 0 0 0 0 0 0 0 0 0 0 0 0 0 0 127 0" result="hardAlpha"/>
<feOffset dx="2.92499" dy="3.50999"/>
<feGaussianBlur stdDeviation="10.14"/>
<feComposite in2="hardAlpha" operator="arithmetic" k2="-1" k3="1"/>
<feColorMatrix type="matrix" values="0 0 0 0 1 0 0 0 0 1 0 0 0 0 1 0 0 0 0.55 0"/>
<feBlend mode="normal" in2="shape" result="effect1_innerShadow_2002_1308"/>
</filter>
<radialGradient id="paint0_radial_2002_1308" cx="0" cy="0" r="1" gradientUnits="userSpaceOnUse" gradientTransform="translate(7.15064 1.92332) rotate(52.9097) scale(49.6144 52.6213)">
<stop stop-color="#2535C4"/>
<stop offset="0.0001" stop-color="#3448FE"/>
<stop offset="0.527778" stop-color="#265ABF"/>
<stop offset="0.9998" stop-color="#0A1255"/>
</radialGradient>
<linearGradient id="paint1_linear_2002_1308" x1="22.5495" y1="0.5" x2="22.5495" y2="41.5" gradientUnits="userSpaceOnUse">
<stop stop-color="white"/>
<stop offset="1" stop-color="white" stop-opacity="0"/>
</linearGradient>
<linearGradient id="paint2_linear_2002_1308" x1="22.6268" y1="6.95654" x2="22.6268" y2="34.9189" gradientUnits="userSpaceOnUse">
<stop stop-color="white"/>
<stop offset="1" stop-color="#D7BFFF"/>
</linearGradient>
<linearGradient id="paint3_linear_2002_1308" x1="22.6268" y1="6.95654" x2="22.6268" y2="34.9189" gradientUnits="userSpaceOnUse">
<stop stop-color="white"/>
<stop offset="1" stop-color="#BFD1FF"/>
</linearGradient>
<clipPath id="clip0_2002_1308">
<rect width="45.6811" height="41" fill="white" transform="translate(0 0.5)"/>
</clipPath>
</defs>
</svg>
