<svg width="14" height="17" viewBox="0 0 14 17" fill="none" xmlns="http://www.w3.org/2000/svg">
<path id="Vector" d="M12 11.1562H6C5.725 11.1562 5.5 10.9172 5.5 10.625V2.125C5.5 1.83281 5.725 1.59375 6 1.59375H10.3781L12.5 3.84824V10.625C12.5 10.9172 12.275 11.1562 12 11.1562ZM6 12.75H12C13.1031 12.75 14 11.7971 14 10.625V3.84824C14 3.42656 13.8406 3.02148 13.5594 2.72266L11.4406 0.468164C11.1594 0.169336 10.7781 0 10.3813 0H6C4.89687 0 4 0.95293 4 2.125V10.625C4 11.7971 4.89687 12.75 6 12.75ZM2 4.25C0.896875 4.25 0 5.20293 0 6.375V14.875C0 16.0471 0.896875 17 2 17H8C9.10312 17 10 16.0471 10 14.875V13.8125H8.5V14.875C8.5 15.1672 8.275 15.4062 8 15.4062H2C1.725 15.4062 1.5 15.1672 1.5 14.875V6.375C1.5 6.08281 1.725 5.84375 2 5.84375H3V4.25H2Z" fill="url(#paint0_linear_2007_648)"/>
<defs>
<linearGradient id="paint0_linear_2007_648" x1="12.5097" y1="25.6635" x2="-2.72574" y2="4.47933" gradientUnits="userSpaceOnUse">
<stop stop-color="#B96BFF"/>
<stop offset="0.492701" stop-color="#8425DA"/>
<stop offset="1" stop-color="#762CB9"/>
</linearGradient>
</defs>
</svg>
