<svg width="44" height="42" viewBox="0 0 44 42" fill="none" xmlns="http://www.w3.org/2000/svg">
<g clip-path="url(#clip0_2001_1332)">
<g filter="url(#filter0_i_2001_1332)">
<rect x="0.194999" y="0.194999" width="43.61" height="41.61" rx="12.48" fill="url(#paint0_radial_2001_1332)" stroke="url(#paint1_linear_2001_1332)" stroke-width="0.389999"/>
</g>
<mask id="mask0_2001_1332" style="mask-type:alpha" maskUnits="userSpaceOnUse" x="6" y="7" width="33" height="28">
<rect x="6.19287" y="7" width="32" height="28" rx="5" fill="url(#paint2_linear_2001_1332)"/>
</mask>
<g mask="url(#mask0_2001_1332)">
<path fill-rule="evenodd" clip-rule="evenodd" d="M6.19287 12C6.19287 9.23858 8.43145 7 11.1929 7H33.1929C35.9543 7 38.1929 9.23858 38.1929 12V30C38.1929 32.7614 35.9543 35 33.1929 35H11.1929C8.43145 35 6.19287 32.7614 6.19287 30V12ZM15.0107 26H10L10 10L22 10V15H18L23 19.5L19.5 23L15 19L15.0107 26ZM28.9908 17L28.998 21.6602L29 23L27.9986 22.1099L24.5 19L21.7081 21.7919L21 22.5L21.7443 23.1699L24.8889 26L26 27H24.5052L23 27H22V28V31V32H23L33 32H34V31V17V16H33H29.9893H28.9893L28.9908 17ZM28.3356 23.7474L24.5404 20.3738L22.4524 22.4618L26.669 26.2567L28.606 28H26L23 28V31L33 31V17H29.9908L30 22.9985L30.0034 25.2299L28.3356 23.7474Z" fill="url(#paint3_linear_2001_1332)"/>
</g>
</g>
<defs>
<filter id="filter0_i_2001_1332" x="0" y="0" width="46.925" height="45.51" filterUnits="userSpaceOnUse" color-interpolation-filters="sRGB">
<feFlood flood-opacity="0" result="BackgroundImageFix"/>
<feBlend mode="normal" in="SourceGraphic" in2="BackgroundImageFix" result="shape"/>
<feColorMatrix in="SourceAlpha" type="matrix" values="0 0 0 0 0 0 0 0 0 0 0 0 0 0 0 0 0 0 127 0" result="hardAlpha"/>
<feOffset dx="2.92499" dy="3.50999"/>
<feGaussianBlur stdDeviation="10.14"/>
<feComposite in2="hardAlpha" operator="arithmetic" k2="-1" k3="1"/>
<feColorMatrix type="matrix" values="0 0 0 0 1 0 0 0 0 1 0 0 0 0 1 0 0 0 0.55 0"/>
<feBlend mode="normal" in2="shape" result="effect1_innerShadow_2001_1332"/>
</filter>
<radialGradient id="paint0_radial_2001_1332" cx="0" cy="0" r="1" gradientUnits="userSpaceOnUse" gradientTransform="translate(6.41866 1.45804) rotate(53.2487) scale(50.599 53.482)">
<stop stop-color="#2535C4"/>
<stop offset="0.0001" stop-color="#3448FE"/>
<stop offset="0.527778" stop-color="#265ABF"/>
<stop offset="0.9998" stop-color="#0A1255"/>
</radialGradient>
<linearGradient id="paint1_linear_2001_1332" x1="22" y1="0" x2="22" y2="42" gradientUnits="userSpaceOnUse">
<stop stop-color="white"/>
<stop offset="1" stop-color="white" stop-opacity="0"/>
</linearGradient>
<linearGradient id="paint2_linear_2001_1332" x1="24.382" y1="8" x2="24.382" y2="34" gradientUnits="userSpaceOnUse">
<stop stop-color="white"/>
<stop offset="1" stop-color="#BFDDFF"/>
</linearGradient>
<linearGradient id="paint3_linear_2001_1332" x1="24.382" y1="8" x2="24.382" y2="34" gradientUnits="userSpaceOnUse">
<stop stop-color="white"/>
<stop offset="1" stop-color="#BFDDFF"/>
</linearGradient>
<clipPath id="clip0_2001_1332">
<rect width="44" height="42" fill="white"/>
</clipPath>
</defs>
</svg>
