<svg width="44" height="42" viewBox="0 0 44 42" fill="none" xmlns="http://www.w3.org/2000/svg">
<g clip-path="url(#clip0_2001_1319)">
<g filter="url(#filter0_i_2001_1319)">
<rect x="0.194999" y="0.194999" width="43.61" height="41.61" rx="12.48" fill="url(#paint0_radial_2001_1319)" stroke="url(#paint1_linear_2001_1319)" stroke-width="0.389999"/>
</g>
<mask id="mask0_2001_1319" style="mask-type:alpha" maskUnits="userSpaceOnUse" x="6" y="7" width="33" height="28">
<rect x="6.19287" y="7" width="32" height="28" rx="5" fill="url(#paint2_linear_2001_1319)"/>
</mask>
<g mask="url(#mask0_2001_1319)">
<path fill-rule="evenodd" clip-rule="evenodd" d="M11.1929 7C8.43145 7 6.19287 9.23858 6.19287 12V30C6.19287 32.7614 8.43145 35 11.1929 35H33.1929C35.9543 35 38.1929 32.7614 38.1929 30V12C38.1929 9.23858 35.9543 7 33.1929 7H11.1929ZM35 29V13H34.9757H24V18H27.5L17 29L23 29L30 21.5V29H35ZM17 18L21.7411 22.4846L18.8588 25.5694L15 22V29H10V16.0856V13H10.0268H12.8815H14.0763H20.5V18H17Z" fill="url(#paint3_linear_2001_1319)"/>
<path fill-rule="evenodd" clip-rule="evenodd" d="M11.1929 7C8.43145 7 6.19287 9.23858 6.19287 12V30C6.19287 32.7614 8.43145 35 11.1929 35H33.1929C35.9543 35 38.1929 32.7614 38.1929 30V12C38.1929 9.23858 35.9543 7 33.1929 7H11.1929ZM35 29V13H34.9757H24V18H27.5L17 29L23 29L30 21.5V29H35ZM17 18L21.7411 22.4846L18.8588 25.5694L15 22V29H10V16.0856V13H10.0268H12.8815H14.0763H20.5V18H17Z" fill="url(#paint4_linear_2001_1319)"/>
</g>
</g>
<defs>
<filter id="filter0_i_2001_1319" x="0" y="0" width="46.925" height="45.51" filterUnits="userSpaceOnUse" color-interpolation-filters="sRGB">
<feFlood flood-opacity="0" result="BackgroundImageFix"/>
<feBlend mode="normal" in="SourceGraphic" in2="BackgroundImageFix" result="shape"/>
<feColorMatrix in="SourceAlpha" type="matrix" values="0 0 0 0 0 0 0 0 0 0 0 0 0 0 0 0 0 0 127 0" result="hardAlpha"/>
<feOffset dx="2.92499" dy="3.50999"/>
<feGaussianBlur stdDeviation="10.14"/>
<feComposite in2="hardAlpha" operator="arithmetic" k2="-1" k3="1"/>
<feColorMatrix type="matrix" values="0 0 0 0 1 0 0 0 0 1 0 0 0 0 1 0 0 0 0.55 0"/>
<feBlend mode="normal" in2="shape" result="effect1_innerShadow_2001_1319"/>
</filter>
<radialGradient id="paint0_radial_2001_1319" cx="0" cy="0" r="1" gradientUnits="userSpaceOnUse" gradientTransform="translate(6.41866 1.45804) rotate(53.2487) scale(50.599 53.482)">
<stop stop-color="#9125C4"/>
<stop offset="0.0001" stop-color="#B134FE"/>
<stop offset="0.527778" stop-color="#7326BF"/>
<stop offset="0.9998" stop-color="#2B0A55"/>
</radialGradient>
<linearGradient id="paint1_linear_2001_1319" x1="22" y1="0" x2="22" y2="42" gradientUnits="userSpaceOnUse">
<stop stop-color="white"/>
<stop offset="1" stop-color="white" stop-opacity="0"/>
</linearGradient>
<linearGradient id="paint2_linear_2001_1319" x1="22.1929" y1="7" x2="22.1929" y2="35" gradientUnits="userSpaceOnUse">
<stop stop-color="white"/>
<stop offset="1" stop-color="#D7BFFF"/>
</linearGradient>
<linearGradient id="paint3_linear_2001_1319" x1="24.382" y1="8" x2="24.382" y2="34" gradientUnits="userSpaceOnUse">
<stop stop-color="white"/>
<stop offset="1" stop-color="#FFDEBF"/>
</linearGradient>
<linearGradient id="paint4_linear_2001_1319" x1="22.1929" y1="7" x2="22.1929" y2="35" gradientUnits="userSpaceOnUse">
<stop stop-color="white"/>
<stop offset="1" stop-color="#D7BFFF"/>
</linearGradient>
<clipPath id="clip0_2001_1319">
<rect width="44" height="42" fill="white"/>
</clipPath>
</defs>
</svg>
