<svg width="32" height="32" viewBox="0 0 32 32" fill="none" xmlns="http://www.w3.org/2000/svg">
<path id="Vector" d="M16 0C24.8368 0 32 7.1632 32 16C32 24.8368 24.8368 32 16 32C7.1632 32 0 24.8368 0 16C0 7.1632 7.1632 0 16 0ZM16 2.4C12.6052 2.4 8.80047 3.99953 6.4 6.4C3.99953 8.80047 2.4 12.6052 2.4 16C2.4 19.3948 3.99953 23.1995 6.4 25.6C8.80047 28.0005 12.6052 29.6 16 29.6C19.3948 29.6 23.1995 28.0005 25.6 25.6C28.0005 23.1995 29.6 19.3948 29.6 16C29.6 12.6052 28.0005 8.80047 25.6 6.4C23.1995 3.99953 19.3948 2.4 16 2.4ZM16 8C16.4243 8 16.8313 8.16857 17.1314 8.46863C17.4314 8.76869 17.6 9.17565 17.6 9.6V14.4H22.4C22.8243 14.4 23.2313 14.5686 23.5314 14.8686C23.8314 15.1687 24 15.5757 24 16C24 16.4243 23.8314 16.8313 23.5314 17.1314C23.2313 17.4314 22.8243 17.6 22.4 17.6H17.6V22.4C17.6 22.8243 17.4314 23.2313 17.1314 23.5314C16.8313 23.8314 16.4243 24 16 24C15.5757 24 15.1687 23.8314 14.8686 23.5314C14.5686 23.2313 14.4 22.8243 14.4 22.4V17.6H9.6C9.17565 17.6 8.76869 17.4314 8.46863 17.1314C8.16857 16.8313 8 16.4243 8 16C8 15.5757 8.16857 15.1687 8.46863 14.8686C8.76869 14.5686 9.17565 14.4 9.6 14.4H14.4V9.6C14.4 9.17565 14.5686 8.76869 14.8686 8.46863C15.1687 8.16857 15.5757 8 16 8Z" fill="white"/>
</svg>
