<svg width="0" height="0" class="hidden">
  <symbol xmlns="http://www.w3.org/2000/svg" viewBox="0 0 24 24" id="ic_arr_ver">
    <path d="M19 8.5L12 15.5L5 8.5" stroke="currentColor" stroke-linecap="round" stroke-linejoin="round" fill="none"></path>
  </symbol>
  <symbol fill="none" xmlns="http://www.w3.org/2000/svg" viewBox="0 0 24 20" id="ic_arr_ver2">
    <path d="M13.008 13.1991L19.083 8.06143C20.2729 7.00714 18.6554 5.57519 17.4887 6.60588L11.9994 11.2597L6.44956 6.57834C5.36656 5.61847 3.77691 7.09762 4.86456 8.06143L10.9535 13.2109C11.6879 13.8758 12.1341 13.9859 13.008 13.1991Z" fill="currentColor"></path>
  </symbol>
  <symbol xmlns="http://www.w3.org/2000/svg" viewBox="0 0 16 16" id="ic_check">
    <path d="M12 4.6665L6.28571 11.3332L4 8.6665" stroke="currentColor" stroke-linecap="round" stroke-linejoin="round" fill="none"></path>
  </symbol>
  <symbol fill="none" xmlns="http://www.w3.org/2000/svg" viewBox="0 0 18 18" id="ic_close">
    <path d="M16.6274 1.37255C17.032 1.77714 17.2593 2.32587 17.2593 2.89804C17.2593 3.47021 17.032 4.01894 16.6274 4.42353L12.051 8.99999L16.6274 13.5764C17.032 13.981 17.2593 14.5298 17.2593 15.1019C17.2593 15.6741 17.032 16.2228 16.6274 16.6274C16.2229 17.032 15.6741 17.2593 15.1019 17.2593C14.5298 17.2593 13.981 17.032 13.5765 16.6274L9 12.051L4.42354 16.6274C4.01896 17.032 3.47022 17.2593 2.89805 17.2593C2.32588 17.2593 1.77715 17.032 1.37256 16.6274C0.96798 16.2228 0.740687 15.6741 0.740688 15.1019C0.740689 14.5298 0.967984 13.981 1.37257 13.5764L5.94903 8.99999L1.37257 4.42353C0.967982 4.01894 0.740689 3.47021 0.740689 2.89804C0.740689 2.32587 0.967981 1.77714 1.37257 1.37255C1.77715 0.967967 2.32588 0.740675 2.89805 0.740676C3.47022 0.740676 4.01895 0.967969 4.42354 1.37255L9 5.94902L13.5765 1.37255C13.981 0.967969 14.5298 0.740676 15.1019 0.740676C15.6741 0.740675 16.2229 0.967967 16.6274 1.37255Z" fill="currentColor"></path>
  </symbol>
  <symbol fill="none" xmlns="http://www.w3.org/2000/svg" viewBox="0 0 42 42" id="ic_favorite_a">
    <g id="Property 1=Variant3">
      <path id="Vector" fill-rule="evenodd" clip-rule="evenodd" d="M18.8527 11.146C19.3277 10.524 19.9167 10 20.7507 10C21.5847 10 22.1727 10.524 22.6497 11.146C23.1177 11.758 23.6147 12.649 24.2217 13.738L24.5807 14.381C24.9727 15.085 25.0737 15.235 25.1997 15.331C25.3197 15.422 25.4767 15.474 26.2397 15.647L26.9397 15.805C28.1157 16.071 29.0847 16.29 29.7897 16.568C30.5217 16.857 31.1627 17.282 31.4097 18.075C31.6537 18.86 31.3797 19.582 30.9557 20.255C30.5437 20.91 29.8857 21.68 29.0817 22.62L28.6067 23.175C28.0897 23.779 27.9817 23.927 27.9307 24.09C27.8797 24.257 27.8837 24.45 27.9627 25.255L28.0337 25.993C28.1557 27.249 28.2547 28.273 28.2197 29.053C28.1847 29.848 28.0047 30.61 27.3497 31.108C26.6817 31.614 25.9047 31.558 25.1547 31.342C24.4277 31.134 23.5217 30.717 22.4217 30.21L21.7657 29.908C21.0477 29.578 20.8947 29.525 20.7507 29.525C20.6067 29.525 20.4537 29.578 19.7357 29.908L19.0807 30.21C17.9797 30.717 17.0737 31.134 16.3467 31.342C15.5967 31.557 14.8197 31.614 14.1527 31.108C13.4967 30.61 13.3167 29.848 13.2817 29.054C13.2467 28.274 13.3457 27.249 13.4677 25.994L13.5397 25.255C13.6177 24.449 13.6217 24.257 13.5697 24.09C13.5197 23.927 13.4117 23.78 12.8947 23.175L12.4197 22.62C11.6167 21.68 10.9587 20.91 10.5467 20.256C10.1217 19.582 9.84772 18.86 10.0917 18.075C10.3387 17.282 10.9797 16.857 11.7117 16.568C12.4167 16.29 13.3857 16.071 14.5617 15.805L14.6247 15.791L15.2607 15.647C16.0247 15.474 16.1807 15.422 16.3017 15.33C16.4277 15.235 16.5287 15.085 16.9217 14.381L17.2797 13.738C17.8867 12.648 18.3837 11.758 18.8517 11.146" fill="#FFBA35"></path>
    </g>
  </symbol>
  <symbol fill="none" xmlns="http://www.w3.org/2000/svg" viewBox="0 0 42 42" id="ic_favorite">
    <path fill-rule="evenodd" clip-rule="evenodd" d="M20.0427 12.058C19.6487 12.572 19.2047 13.366 18.5587 14.524L18.2317 15.111L18.1727 15.217C17.8727 15.757 17.6177 16.215 17.2087 16.525C16.7957 16.839 16.2917 16.952 15.7057 17.084L15.5917 17.11L14.9557 17.254C13.7007 17.538 12.8457 17.733 12.2617 17.964C11.6907 18.188 11.5707 18.373 11.5247 18.52C11.4757 18.676 11.4747 18.915 11.8147 19.457C12.1617 20.007 12.7467 20.693 13.6007 21.693L14.0347 22.2L14.1097 22.287C14.5127 22.757 14.8487 23.149 15.0027 23.645C15.1557 24.138 15.1047 24.655 15.0427 25.283L15.0327 25.4L14.9667 26.077C14.8367 27.409 14.7507 28.327 14.7797 28.987C14.8097 29.647 14.9487 29.829 15.0597 29.913C15.1577 29.988 15.3397 30.07 15.9327 29.9C16.5357 29.728 17.3377 29.361 18.5127 28.82L19.1087 28.546L19.2177 28.496C19.7627 28.243 20.2347 28.025 20.7507 28.025C21.2667 28.025 21.7387 28.243 22.2837 28.495C22.32 28.5125 22.3567 28.5291 22.3937 28.545L22.9887 28.82C24.1637 29.361 24.9657 29.728 25.5687 29.9C26.1617 30.07 26.3437 29.988 26.4417 29.913C26.5527 29.829 26.6917 29.646 26.7217 28.987C26.7517 28.327 26.6637 27.409 26.5347 26.077L26.4687 25.4L26.4587 25.283C26.3967 24.655 26.3457 24.138 26.4987 23.645C26.6527 23.149 26.9887 22.757 27.3917 22.287L27.4667 22.2L27.9007 21.693C28.7547 20.693 29.3397 20.007 29.6857 19.457C30.0267 18.915 30.0257 18.677 29.9767 18.52C29.9307 18.373 29.8107 18.188 29.2397 17.964C28.6547 17.733 27.8007 17.538 26.5457 17.254L25.9097 17.11C25.8707 17.1 25.8327 17.092 25.7957 17.084C25.2097 16.952 24.7057 16.839 24.2927 16.525C23.8827 16.215 23.6297 15.758 23.3287 15.217L23.2707 15.111L22.9427 14.524C22.2967 13.366 21.8527 12.572 21.4587 12.058C21.0657 11.544 20.8647 11.5 20.7507 11.5C20.6367 11.5 20.4357 11.544 20.0427 12.058ZM18.8527 11.146C19.3277 10.524 19.9167 10 20.7507 10C21.5847 10 22.1727 10.524 22.6497 11.146C23.1177 11.758 23.6147 12.649 24.2217 13.738L24.5807 14.381C24.9727 15.085 25.0737 15.235 25.1997 15.331C25.3197 15.422 25.4767 15.474 26.2397 15.647L26.9397 15.805C28.1157 16.071 29.0847 16.29 29.7897 16.568C30.5217 16.857 31.1627 17.282 31.4097 18.075C31.6537 18.86 31.3797 19.582 30.9557 20.255C30.5437 20.91 29.8857 21.68 29.0817 22.62L28.6067 23.175C28.0897 23.779 27.9817 23.927 27.9307 24.09C27.8797 24.257 27.8837 24.45 27.9627 25.255L28.0337 25.993C28.1557 27.249 28.2547 28.273 28.2197 29.053C28.1847 29.848 28.0047 30.61 27.3497 31.108C26.6817 31.614 25.9047 31.558 25.1547 31.342C24.4277 31.134 23.5217 30.717 22.4217 30.21L21.7657 29.908C21.0477 29.578 20.8947 29.525 20.7507 29.525C20.6067 29.525 20.4537 29.578 19.7357 29.908L19.0807 30.21C17.9797 30.717 17.0737 31.134 16.3467 31.342C15.5967 31.557 14.8197 31.614 14.1527 31.108C13.4967 30.61 13.3167 29.848 13.2817 29.054C13.2467 28.274 13.3457 27.249 13.4677 25.994L13.5397 25.255C13.6177 24.449 13.6217 24.257 13.5697 24.09C13.5197 23.927 13.4117 23.78 12.8947 23.175L12.4197 22.62C11.6167 21.68 10.9587 20.91 10.5467 20.256C10.1217 19.582 9.84772 18.86 10.0917 18.075C10.3387 17.282 10.9797 16.857 11.7117 16.568C12.4167 16.29 13.3857 16.071 14.5617 15.805L14.6247 15.791L15.2607 15.647C16.0247 15.474 16.1807 15.422 16.3017 15.33C16.4277 15.235 16.5287 15.085 16.9217 14.381L17.2797 13.738C17.8867 12.648 18.3837 11.758 18.8517 11.146" fill="currentColor"></path>
  </symbol>
  <symbol xmlns="http://www.w3.org/2000/svg" viewBox="0 0 16 16" id="ic_link_arrow">
    <path fill-rule="evenodd" clip-rule="evenodd" d="M14.0006 2.50035C14.0006 2.36774 13.948 2.24056 13.8542 2.14679C13.7604 2.05302 13.6332 2.00035 13.5006 2.00035H7.50063C7.36802 2.00035 7.24085 2.05302 7.14708 2.14679C7.05331 2.24056 7.00063 2.36774 7.00063 2.50035C7.00063 2.63295 7.05331 2.76013 7.14708 2.8539C7.24085 2.94767 7.36802 3.00035 7.50063 3.00035H12.2936L2.14663 13.1463C2.10014 13.1928 2.06327 13.248 2.03811 13.3088C2.01295 13.3695 2 13.4346 2 13.5003C2 13.5661 2.01295 13.6312 2.03811 13.6919C2.06327 13.7527 2.10014 13.8079 2.14663 13.8543C2.19312 13.9008 2.24831 13.9377 2.30905 13.9629C2.36979 13.988 2.43489 14.001 2.50063 14.001C2.56638 14.001 2.63148 13.988 2.69221 13.9629C2.75295 13.9377 2.80814 13.9008 2.85463 13.8543L13.0006 3.70735V8.50035C13.0006 8.63295 13.0533 8.76013 13.1471 8.8539C13.2408 8.94767 13.368 9.00035 13.5006 9.00035C13.6332 9.00035 13.7604 8.94767 13.8542 8.8539C13.948 8.76013 14.0006 8.63295 14.0006 8.50035V2.50035Z" fill="currentColor"></path>
  </symbol>
  <symbol xmlns="http://www.w3.org/2000/svg" viewBox="0 0 18 18" id="ic_notification_error">
    <path d="M9 14.25V14.2575M9 11.25V3.75" stroke="currentColor" stroke-width="2" stroke-linecap="round" stroke-linejoin="round" fill="none"></path>
  </symbol>
  <symbol xmlns="http://www.w3.org/2000/svg" viewBox="0 0 24 24" id="ic_notification_success">
    <path d="M18 7L9.42857 17L6 13" stroke="currentColor" stroke-width="1.5" stroke-linecap="round" stroke-linejoin="round" fill="none"></path>
  </symbol>
  <symbol fill="none" xmlns="http://www.w3.org/2000/svg" viewBox="0 0 18 19" id="ic_search">
    <path fill-rule="evenodd" clip-rule="evenodd" d="M8.00644 0.5C6.72963 0.500109 5.47135 0.805544 4.3366 1.39082C3.20184 1.9761 2.2235 2.82425 1.48321 3.86452C0.742925 4.90478 0.26215 6.10698 0.0809993 7.37083C-0.100152 8.63468 0.0235751 9.92353 0.441857 11.1298C0.860138 12.3361 1.56085 13.4249 2.48552 14.3054C3.41019 15.1858 4.53201 15.8324 5.75739 16.1911C6.98278 16.5498 8.27618 16.6103 9.5297 16.3676C10.7832 16.1248 11.9605 15.5858 12.9633 14.7955L16.4036 18.2356C16.5812 18.4072 16.8192 18.5021 17.0662 18.5C17.3132 18.4978 17.5494 18.3988 17.7241 18.2241C17.8987 18.0495 17.9978 17.8132 18 17.5662C18.0021 17.3192 17.9072 17.0813 17.7356 16.9036L14.2953 13.4635C15.226 12.2829 15.8055 10.864 15.9675 9.36941C16.1295 7.8748 15.8674 6.36478 15.2112 5.01217C14.555 3.65955 13.5312 2.519 12.2571 1.72102C10.9829 0.923049 9.50986 0.499899 8.00644 0.5ZM1.88335 8.50682C1.88335 6.88294 2.52846 5.32556 3.67676 4.1773C4.82506 3.02904 6.3825 2.38396 8.00644 2.38396C9.63039 2.38396 11.1878 3.02904 12.3361 4.1773C13.4844 5.32556 14.1295 6.88294 14.1295 8.50682C14.1295 10.1307 13.4844 11.6881 12.3361 12.8363C11.1878 13.9846 9.63039 14.6297 8.00644 14.6297C6.3825 14.6297 4.82506 13.9846 3.67676 12.8363C2.52846 11.6881 1.88335 10.1307 1.88335 8.50682Z" fill="currentColor"></path>
  </symbol>
  <symbol fill="none" xmlns="http://www.w3.org/2000/svg" viewBox="0 0 20 20" id="ic_trash">
    <path fill-rule="evenodd" clip-rule="evenodd" d="M1.5 3.5H18.5L17.2015 19.0828C17.1583 19.6011 16.725 19.9998 16.2049 19.9998H3.79525C3.27516 19.9998 2.8419 19.6011 2.7987 19.0828L1.5 3.5ZM5.99999 7.49993C5.99999 6.6715 6.67156 5.99993 7.49999 5.99993C8.32842 5.99993 8.99999 6.6715 8.99999 7.49993V15.4999C8.99999 16.3284 8.32842 16.9999 7.49999 16.9999C6.67156 16.9999 5.99999 16.3284 5.99999 15.4999V7.49993ZM12.5 5.99993C11.6716 5.99993 11 6.6715 11 7.49993V15.4999C11 16.3284 11.6716 16.9999 12.5 16.9999C13.3284 16.9999 14 16.3284 14 15.4999V7.49993C14 6.6715 13.3284 5.99993 12.5 5.99993Z" fill="currentColor"></path>
    <rect y="1.81836" width="20" height="2.42424" rx="1.21212" fill="currentColor"></rect>
    <path d="M6.875 2.24358C6.875 1.00449 7.87949 0 9.11858 0H10.7007C12.0396 0 13.125 1.08537 13.125 2.42424H6.875V2.24358Z" fill="currentColor"></path>
  </symbol>
  <symbol fill="none" xmlns="http://www.w3.org/2000/svg" viewBox="0 0 21 20" id="ic_update">
    <path d="M10.5 20C15.6818 20 19.9455 16.0545 20.4545 11C20.5091 10.4636 20.0818 10 19.5455 10C19.0818 10 18.6909 10.3455 18.6455 10.8C18.2455 14.9455 14.7455 18.1818 10.5 18.1818C7.66364 18.1818 5.16364 16.7364 3.7 14.5455H5.04545C5.54545 14.5455 5.95455 14.1364 5.95455 13.6364C5.95455 13.1364 5.54545 12.7273 5.04545 12.7273H1.40909C0.909091 12.7273 0.5 13.1364 0.5 13.6364V17.2727C0.5 17.7727 0.909091 18.1818 1.40909 18.1818C1.90909 18.1818 2.31818 17.7727 2.31818 17.2727V15.7545C4.12727 18.3182 7.11818 20 10.5 20ZM10.5 4.52549e-07C5.31818 4.52549e-07 1.05455 3.94546 0.545455 9C0.5 9.53636 0.918182 10 1.45455 10C1.91818 10 2.30909 9.65455 2.35455 9.2C2.75455 5.05455 6.25455 1.81818 10.5 1.81818C13.3364 1.81818 15.8364 3.26364 17.3 5.45455H15.9545C15.4545 5.45455 15.0455 5.86364 15.0455 6.36364C15.0455 6.86364 15.4545 7.27273 15.9545 7.27273H19.5909C20.0909 7.27273 20.5 6.86364 20.5 6.36364V2.72727C20.5 2.22727 20.0909 1.81818 19.5909 1.81818C19.0909 1.81818 18.6818 2.22727 18.6818 2.72727V4.24546C17.7586 2.93345 16.5332 1.8628 15.1092 1.1239C13.6852 0.384997 12.1043 -0.000482129 10.5 4.52549e-07Z" fill="currentColor"></path>
  </symbol>
</svg>