<svg width="0" height="0" class="hidden">
  <symbol xmlns="http://www.w3.org/2000/svg" viewBox="0 0 24 24" id="ic_arr_ver">
    <path d="M19 8.5L12 15.5L5 8.5" stroke="currentColor" stroke-linecap="round" stroke-linejoin="round" fill="none"></path>
  </symbol>
  <symbol xmlns="http://www.w3.org/2000/svg" viewBox="0 0 16 16" id="ic_check">
    <path d="M12 4.6665L6.28571 11.3332L4 8.6665" stroke="currentColor" stroke-linecap="round" stroke-linejoin="round" fill="none"></path>
  </symbol>
  <symbol xmlns="http://www.w3.org/2000/svg" viewBox="0 0 36 37" id="ic_close">
    <path d="M10.1367 26.3639L18.0007 18.5M25.8646 10.636L18.0007 18.5M18.0007 18.5L10.1367 10.636M18.0007 18.5L25.8646 26.3639" stroke="currentColor" stroke-width="1.5" stroke-linecap="round" stroke-linejoin="round" fill="none"></path>
  </symbol>
  <symbol xmlns="http://www.w3.org/2000/svg" viewBox="0 0 16 16" id="ic_link_arrow">
    <path fill-rule="evenodd" clip-rule="evenodd" d="M14.0006 2.50035C14.0006 2.36774 13.948 2.24056 13.8542 2.14679C13.7604 2.05302 13.6332 2.00035 13.5006 2.00035H7.50063C7.36802 2.00035 7.24085 2.05302 7.14708 2.14679C7.05331 2.24056 7.00063 2.36774 7.00063 2.50035C7.00063 2.63295 7.05331 2.76013 7.14708 2.8539C7.24085 2.94767 7.36802 3.00035 7.50063 3.00035H12.2936L2.14663 13.1463C2.10014 13.1928 2.06327 13.248 2.03811 13.3088C2.01295 13.3695 2 13.4346 2 13.5003C2 13.5661 2.01295 13.6312 2.03811 13.6919C2.06327 13.7527 2.10014 13.8079 2.14663 13.8543C2.19312 13.9008 2.24831 13.9377 2.30905 13.9629C2.36979 13.988 2.43489 14.001 2.50063 14.001C2.56638 14.001 2.63148 13.988 2.69221 13.9629C2.75295 13.9377 2.80814 13.9008 2.85463 13.8543L13.0006 3.70735V8.50035C13.0006 8.63295 13.0533 8.76013 13.1471 8.8539C13.2408 8.94767 13.368 9.00035 13.5006 9.00035C13.6332 9.00035 13.7604 8.94767 13.8542 8.8539C13.948 8.76013 14.0006 8.63295 14.0006 8.50035V2.50035Z" fill="currentColor"></path>
  </symbol>
  <symbol xmlns="http://www.w3.org/2000/svg" viewBox="0 0 18 18" id="ic_notification_error">
    <path d="M9 14.25V14.2575M9 11.25V3.75" stroke="currentColor" stroke-width="2" stroke-linecap="round" stroke-linejoin="round" fill="none"></path>
  </symbol>
  <symbol xmlns="http://www.w3.org/2000/svg" viewBox="0 0 24 24" id="ic_notification_success">
    <path d="M18 7L9.42857 17L6 13" stroke="currentColor" stroke-width="1.5" stroke-linecap="round" stroke-linejoin="round" fill="none"></path>
  </symbol>
  <symbol fill="none" xmlns="http://www.w3.org/2000/svg" viewBox="0 0 20 20" id="ic_trash">
    <path fill-rule="evenodd" clip-rule="evenodd" d="M1.5 3.5H18.5L17.2015 19.0828C17.1583 19.6011 16.725 19.9998 16.2049 19.9998H3.79525C3.27516 19.9998 2.8419 19.6011 2.7987 19.0828L1.5 3.5ZM5.99999 7.49993C5.99999 6.6715 6.67156 5.99993 7.49999 5.99993C8.32842 5.99993 8.99999 6.6715 8.99999 7.49993V15.4999C8.99999 16.3284 8.32842 16.9999 7.49999 16.9999C6.67156 16.9999 5.99999 16.3284 5.99999 15.4999V7.49993ZM12.5 5.99993C11.6716 5.99993 11 6.6715 11 7.49993V15.4999C11 16.3284 11.6716 16.9999 12.5 16.9999C13.3284 16.9999 14 16.3284 14 15.4999V7.49993C14 6.6715 13.3284 5.99993 12.5 5.99993Z" fill="currentColor"></path>
    <rect y="1.81836" width="20" height="2.42424" rx="1.21212" fill="currentColor"></rect>
    <path d="M6.875 2.24358C6.875 1.00449 7.87949 0 9.11858 0H10.7007C12.0396 0 13.125 1.08537 13.125 2.42424H6.875V2.24358Z" fill="currentColor"></path>
  </symbol>
  <symbol fill="none" xmlns="http://www.w3.org/2000/svg" viewBox="0 0 21 20" id="ic_update">
    <path d="M10.5 20C15.6818 20 19.9455 16.0545 20.4545 11C20.5091 10.4636 20.0818 10 19.5455 10C19.0818 10 18.6909 10.3455 18.6455 10.8C18.2455 14.9455 14.7455 18.1818 10.5 18.1818C7.66364 18.1818 5.16364 16.7364 3.7 14.5455H5.04545C5.54545 14.5455 5.95455 14.1364 5.95455 13.6364C5.95455 13.1364 5.54545 12.7273 5.04545 12.7273H1.40909C0.909091 12.7273 0.5 13.1364 0.5 13.6364V17.2727C0.5 17.7727 0.909091 18.1818 1.40909 18.1818C1.90909 18.1818 2.31818 17.7727 2.31818 17.2727V15.7545C4.12727 18.3182 7.11818 20 10.5 20ZM10.5 4.52549e-07C5.31818 4.52549e-07 1.05455 3.94546 0.545455 9C0.5 9.53636 0.918182 10 1.45455 10C1.91818 10 2.30909 9.65455 2.35455 9.2C2.75455 5.05455 6.25455 1.81818 10.5 1.81818C13.3364 1.81818 15.8364 3.26364 17.3 5.45455H15.9545C15.4545 5.45455 15.0455 5.86364 15.0455 6.36364C15.0455 6.86364 15.4545 7.27273 15.9545 7.27273H19.5909C20.0909 7.27273 20.5 6.86364 20.5 6.36364V2.72727C20.5 2.22727 20.0909 1.81818 19.5909 1.81818C19.0909 1.81818 18.6818 2.22727 18.6818 2.72727V4.24546C17.7586 2.93345 16.5332 1.8628 15.1092 1.1239C13.6852 0.384997 12.1043 -0.000482129 10.5 4.52549e-07Z" fill="currentColor"></path>
  </symbol>
</svg>